<?xml version="1.0" encoding="UTF-8"?>
<svg id="Layer_1" data-name="Layer 1" xmlns="http://www.w3.org/2000/svg" viewBox="0 0 1050.91 253.44">
  <defs>
    <style>
      .cls-1 {
        fill: #00425a;
      }

      .cls-2 {
        stroke: #231f20;
        stroke-width: .25px;
      }

      .cls-2, .cls-3 {
        stroke-miterlimit: 10;
      }

      .cls-3 {
        stroke: #00425a;
      }

      .cls-3, .cls-4 {
        fill: #399;
      }
    </style>
  </defs>
  <g>
    <path class="cls-1" d="M557.83,136.42c-1.16-.14-2.09-.3-3.04-.37-2.91-.22-5.29,.88-7.24,3.03-1.66,1.83-2.73,4.01-3.55,6.33-1.34,3.83-1.92,7.79-2.05,11.83-.02,.71,0,1.43-.07,2.14-.04,.41-.22,.81-.38,1.36-.89-.61-.97-1.41-1.07-2.12-.5-3.53-1.13-7.04-1.37-10.59-.46-6.94-.03-13.85,1.67-20.62,.12-.49,.19-1.02,.41-1.47,.74-1.49,.46-2.87-.08-4.38-2.84-7.98-6.71-15.35-12.19-21.8-7.54-8.88-17-14.79-27.93-18.34-5.6-1.82-11.35-2.96-17.21-3.47-19.44-1.7-37.98,1.68-55.45,10.52-13.88,7.02-25.04,17.17-33.16,30.68-.62,1.03-.79,1.94-.54,3.14,1.5,7.39,2.34,14.87,2.83,22.4,.43,6.57,.5,13.14,.16,19.7-.56,11.07-2.13,21.99-5.46,32.58-.3,.95-.11,1.63,.37,2.41,7.45,12.15,17.9,20.46,31.19,25.12,7.33,2.57,14.87,4.14,22.62,4.65,24.65,1.62,46.33-6.04,65.41-21.69,2.45-2.01,4.64-4.34,6.84-6.41,0-.35,.04-.47,0-.54-2.2-3.76-3.05-7.94-3.67-12.18-.81-5.56-1.21-11.14-.92-16.76,.2-3.92,.59-7.84,1.81-11.58,.66-2.02,1.63-3.93,2.49-5.87,.2-.46,.52-.87,.82-1.28,2.34-3.25,4.91-3.92,8.66-1.22,1.67,1.2,2.76,2.93,3.7,4.76,1.8,3.51,2.82,7.29,3.52,11.16,.94,5.22,1.53,10.48,1.56,15.79,0,.45,.05,.9,.1,1.55,.61-.21,1.13-.34,1.62-.55,5.06-2.16,8.98-5.74,12.1-10.23,4.95-7.12,7.66-15.06,8.03-23.79,.07-1.52,.21-3.04,.36-4.56,.04-.37,.24-.72,.39-1.16,.88,.54,.92,1.37,1.12,2.06,1.11,3.94,1.56,7.98,1.57,12.08,0,1.57,0,3.14,0,4.7,.18,.01,.31,.06,.35,.02,3.96-3.68,7.92-7.37,11.23-11.7,3.46-4.54,5.81-9.6,6.88-15.27,.4-2.13,.17-4.19-.54-6.16-.71-1.95-1.56-3.86-2.53-5.7-3.63-6.93-8.3-13.1-13.8-18.61-4.53-4.55-9.13-9.04-13.63-13.61-1.7-1.73-3.27-3.59-4.81-5.47-6.42-7.78-10.02-16.83-11.75-26.74-1.27-7.32-1.4-14.69-1.16-22.08,.02-.56,.11-1.12,.26-1.65,.09-.31,.37-.8,.54-.79,.34,.02,.78,.26,.95,.54,.48,.77,.95,1.58,1.22,2.44,1.04,3.29,2.08,6.59,2.98,9.92,2.39,8.83,5.9,17.09,11.48,24.36,2.42,3.15,5.23,5.9,8.12,8.59,2.22,2.06,4.46,4.11,6.65,6.21,6.27,6.01,10.76,13.24,14.08,21.28,3.02,7.31,5.22,14.86,6.24,22.73,.81,6.19,.7,12.37-.03,18.58-.51,4.3-1.42,8.41-3.18,12.34-3.22,7.23-8.06,13.22-13.87,18.45-3.16,2.85-6.55,5.38-10.13,7.66-.96,.61-1.67,1.37-2.25,2.37-3.34,5.7-7.56,10.53-13.47,13.61-2.47,1.29-5.02,2.31-7.79,2.69-.79,.11-1.42,.41-1.88,1.1-.36,.55-.81,1.04-1.17,1.59-5.04,7.81-11.54,14.22-18.7,19.96-11.01,8.83-23.3,15.07-36.97,18.42-7.9,1.93-15.91,2.67-24.03,2.41-8.93-.28-17.65-1.74-26.11-4.68-10.23-3.55-19.28-9.01-26.64-17.18-4.5-5-8.14-10.59-11.14-16.63-.24-.49-.5-.97-.81-1.56-.23,.36-.39,.56-.51,.77-6.64,11.98-16.53,20.15-28.9,25.42-7.01,2.99-14.31,4.91-21.81,6.14-5.55,.91-11.14,1.52-16.76,1.66-2.65,.06-5.32-.11-7.97-.25-4.56-.24-9.11-.55-13.67-.82-.3-.02-.6-.04-1.06-.07,3.3-.49,6.45-.86,9.57-1.43,23.19-4.25,43.82-13.87,61.14-30.33,5.15-4.9,9.58-10.42,13.39-16.46,.45-.72,.64-1.36,.41-2.26-2.15-8.35-3.34-16.85-3.76-25.48-.58-11.98,.33-23.82,3.12-35.48,.84-3.5,2.06-6.91,3.18-10.34,.27-.82,.31-1.52,.02-2.33-2.73-7.53-6.06-14.75-10.71-21.29-1.08-1.51-2.06-3.09-3.31-4.56,.12,1.74,.24,3.48,.35,5.23,.27,4.07,.53,8.13,.8,12.2,.47,7.22,.95,14.43,1.41,21.65,.33,5.13,.65,10.27,.98,15.4,.15,2.44,.3,4.88,.43,7.32,.07,1.34-.03,2.65-.72,3.84-.2,.35-.42,.7-.7,.99-.51,.51-1.09,.96-1.87,.69-.78-.27-.96-.95-1.02-1.71-.51-6.24-1.01-12.49-1.55-18.73-.75-8.78-1.54-17.55-2.29-26.33-.55-6.44-1.06-12.89-1.61-19.34-.65-7.61-1.33-15.22-1.98-22.83-.25-2.94-.48-5.88-.75-9.05,.44,.3,.71,.48,.96,.67,.32,.25,.6,.55,.93,.78,6.4,4.63,11.15,10.81,15.62,17.23,5.03,7.24,8.95,15.08,12.02,23.36,.16,.43,.31,.86,.48,1.28,.03,.09,.13,.15,.43,.45,.07-.19,.11-.4,.22-.56,7.41-10.82,17.17-18.89,28.55-25.03,9.95-5.37,20.53-8.87,31.61-10.88,7.33-1.33,14.73-1.83,22.16-1.94,5.42-.07,10.84,.02,16.22,.74,2.15,.29,4.24,1.01,6.36,1.54,9.02,2.27,17.34,6.02,24.62,11.97,9.92,8.1,16.24,18.59,19.61,30.96,.72,2.64,1.09,5.38,1.62,8.07,.08,.43,.19,.85,.34,1.51,.35-.72,.56-1.23,.84-1.7,.74-1.2,1.41-2.48,2.31-3.56,2.63-3.15,6.01-4.01,9.92-3.08,.97,.23,1.51,.78,1.74,1.67,.27,1.08,.6,2.18,.66,3.28,.26,4.68,.44,9.36,.6,14.04,.03,.8-.15,1.6-.25,2.53Zm-170.1,.03c-2.71,7.41-4.02,15.04-4.44,22.82-.44,8.12,.25,16.15,2.44,24.23,.24-.42,.42-.65,.53-.92,2.54-6.53,4.07-13.3,4.46-20.32,.33-5.82-.14-11.6-1.25-17.32-.55-2.84-1.15-5.67-1.73-8.5Zm143.52,42.33c-.02-1.73-.28-3.33-1.15-4.75-1.1-1.79-2.7-2.67-4.79-2.56-1.51,.08-2.63,.89-3.58,2.01-1.71,2.02-2.53,4.47-3.26,6.97-.17,.58,.09,.96,.46,1.35,1.87,2.02,4.08,3.41,6.79,3.94,2.08,.4,3.19-.08,4.27-1.9,.93-1.57,1.22-3.31,1.27-5.04Z"/>
    <path class="cls-1" d="M584.49,63.13c5.33,3.58,9.61,8.19,13.52,13.19,6.57,8.4,11.72,17.63,15.55,27.62,.16,.43,.32,.85,.5,1.28,.04,.09,.12,.16,.26,.32,.16-.16,.35-.3,.48-.48,7.76-11.16,18-19.33,29.91-25.47,9.68-4.99,19.91-8.28,30.6-10.13,10.89-1.89,21.85-2.19,32.85-1.54,9.91,.58,19.6,2.32,29.02,5.53,11.67,3.97,22.14,10.03,31.07,18.68,9.05,8.77,15.68,19.14,19.83,31.14,.16,.47,.3,.95,.31,1.5-.19-.36-.4-.7-.57-1.07-2.25-4.72-5.37-8.83-8.8-12.71-13.64-15.42-30.44-25.46-50.2-30.54-11.91-3.06-23.99-4.35-36.24-3.6-18.26,1.12-35.3,6.19-50.56,16.7-9.44,6.5-17.17,14.66-23.15,24.54-.52,.85-.63,1.63-.42,2.58,1.36,6.07,2.13,12.22,2.72,18.41,.65,6.85,.98,13.72,.79,20.6-.34,12.78-1.87,25.38-5.74,37.6-.31,.96,.03,1.56,.46,2.23,7.02,11.01,16.59,18.83,28.66,23.47,7.5,2.88,15.26,4.57,23.25,5.27,17.24,1.51,33.47-2,48.94-9.76,11.48-5.77,21.15-13.77,29.33-23.72,1.96-2.39,3.86-4.83,5.87-7.17,1.38-1.61,2.83-3.18,4.42-4.57,1-.87,2.27-1.47,3.51-1.98,1.42-.59,2.67-.03,3.61,1.14,.41,.5,.77,1.09,1,1.69,.95,2.47,1.67,5.01,1.99,7.66,.13,1.06,.25,2.14,.6,3.13,.57,1.61,1.75,1.94,3.07,.88,1.06-.84,2.06-1.79,2.97-2.8,5.31-5.88,8.82-12.7,10.18-20.6,.1-.56,.34-1.1,.52-1.67,.97,.33,1.13,1.07,1.39,1.71,1.02,2.47,1.39,5.09,1.69,7.72,.11,.96,.2,1.92,.31,2.94,.2-.08,.37-.09,.44-.19,2.62-3.55,5.05-7.24,6.62-11.41,1.61-4.27,1.79-8.73,1.81-13.23,0-2.64,.3-5.28,.5-7.91,.04-.53,.3-1.03,.47-1.59,.81,.13,1.01,.69,1.26,1.15,1.05,1.91,1.46,4.02,1.54,6.16,.17,4.68,.26,9.37,.38,14.05,0,.25,0,.5,0,.99,.39-.32,.68-.48,.87-.72,1.79-2.33,3.61-4.64,5.32-7.03,2.67-3.75,5.27-7.56,7.97-11.45-.48-.27-.92-.58-1.41-.78-1.33-.55-2.11-1.55-2.33-2.96-.29-1.8-.67-3.62-.72-5.44-.11-3.97-.05-7.95-.04-11.92,0-.49,.13-.98,.21-1.59,.51,.23,.88,.37,1.22,.55,4.73,2.45,9.75,2.95,14.93,2.18,6.17-.91,11.86-3.31,17.51-5.81,2.61-1.16,5.22-2.33,7.97-3.55,.32,1.65,.56,3.18,.92,4.69,.68,2.87,1.5,5.7,2.12,8.59,.33,1.53,.46,3.12,.48,4.69,.02,1.86-.86,3.31-2.43,4.31-.42,.27-.85,.54-1.31,.75-7.13,3.44-13.42,8.15-19.43,13.26-6.8,5.79-12.63,12.48-18.07,19.59-9.94,12.99-20.75,25.16-33.62,35.29-2.93,2.31-5.94,4.52-8.9,6.8-1.27,.97-2.66,1.62-4.22,1.89-2.08,.35-3.6-.74-3.79-2.88-.11-1.16,.07-2.34,.03-3.51-.09-2.59-.17-5.19-.38-7.77-.07-.89-.42-1.79-.8-2.6-.62-1.32-1.79-1.79-3.14-1.29-.74,.27-1.52,.65-2.07,1.2-1.24,1.25-2.48,2.54-3.49,3.98-13.9,19.78-34.9,33.88-58.2,38.89-8.14,1.75-16.38,2.26-24.69,1.67-8.97-.63-17.66-2.42-26.05-5.7-15.42-6.03-26.57-16.8-34.07-31.62-.25-.49-.52-.96-.84-1.55-.23,.33-.38,.52-.5,.73-6.62,11.87-16.45,19.97-28.7,25.22-7.01,3-14.31,4.93-21.8,6.17-5.6,.92-11.23,1.54-16.91,1.67-2.6,.06-5.22-.11-7.82-.24-4.66-.25-9.31-.56-13.97-.84-.2-.01-.4-.03-.89-.08,2.63-.38,4.97-.69,7.3-1.05,12.07-1.85,23.63-5.44,34.64-10.8,12.19-5.93,23.17-13.59,32.45-23.66,3.5-3.81,6.64-7.9,9.45-12.26,.52-.8,.6-1.5,.36-2.42-2.03-7.59-3.27-15.31-3.83-23.15-.58-8.2-.49-16.4,.42-24.56,.97-8.68,2.62-17.2,5.91-25.32,.27-.66,.25-1.24,0-1.89-2.59-6.93-5.68-13.59-9.93-19.65-1.08-1.53-2.07-3.13-3.11-4.69-.13-.2-.29-.38-.67-.87,.07,.87,.11,1.38,.15,1.9,.42,6.4,.84,12.81,1.26,19.21,.46,7.06,.94,14.13,1.39,21.19,.34,5.24,.66,10.47,.99,15.71,.1,1.63,.22,3.25,.27,4.88,.04,1.36-.3,2.64-1.13,3.72-.3,.39-.7,.75-1.12,.97-.87,.46-1.58,.15-1.92-.77-.12-.33-.19-.69-.22-1.04-.44-5.38-.86-10.76-1.31-16.14-.55-6.44-1.13-12.88-1.68-19.33-.45-5.23-.86-10.45-1.31-15.68-.55-6.49-1.13-12.99-1.68-19.48-.44-5.07-.86-10.15-1.29-15.22-.27-3.15-.55-6.29-.82-9.44-.02-.23,0-.47,0-.68Zm25.11,120.7c.12,0,.25,0,.37,0,.36-.94,.73-1.88,1.07-2.83,3.31-9.22,4.63-18.72,3.7-28.5-.54-5.68-1.76-11.24-3.03-16.79-.05-.24-.22-.45-.47-.93-5.02,16.43-6.17,32.65-1.64,49.06Z"/>
    <path class="cls-1" d="M154.54,205.69c-.18,1.35-.35,2.71-.55,4.06-.74,5.16-2.02,10.18-4.27,14.89-2.68,5.61-6.55,10.06-12.13,12.91-3.4,1.73-6.88,2.05-10.52,1.15-3.15-.78-6.06-2.1-8.69-4.04-.24-.18-.49-.33-.99-.65-.08,.19-.13,.39-.23,.56-4.03,6.71-9.96,11.06-17.02,13.96-5.24,2.15-10.7,3.36-16.29,4.1-7.2,.94-14.42,1.01-21.63,.51-4.29-.3-8.56-.98-12.84-1.51-.34-.04-.67-.18-1.36-.38,2.63-.49,4.91-.9,7.18-1.35,13.3-2.66,26.12-6.7,38.01-13.46,5.09-2.9,9.87-6.26,14.2-10.25,.77-.71,1.47-1.51,2.14-2.2-.04-.25-.03-.36-.08-.44-4.27-6.65-6.59-14.05-7.81-21.8-2.5-15.9-.15-31.25,5.55-46.14,1.11-2.89,2.53-5.65,3.82-8.46,.25-.55,.59-1.05,.99-1.75,.47,.48,.86,.84,1.22,1.24,5.26,5.85,8.93,12.64,11.52,20.06,2.66,7.63,4.17,15.51,4.59,23.59,.24,4.58,.38,9.16,.02,13.74-.43,5.36-1.52,10.57-3.37,15.61-.12,.33-.23,.67-.37,1.08,.21,.13,.4,.33,.61,.37,2.14,.43,4.29,.57,6.42,.03,.96-.24,1.92-.61,2.79-1.09,5.03-2.78,8.13-7.13,9.83-12.6,1.71-5.52,2.13-11.17,1.64-16.91-.34-3.97-1.23-7.82-2.14-11.69-.93-3.95-1.55-7.99-2.1-12.02-.7-5.1-1.11-10.23-.93-15.39,.16-4.54,.59-9.05,2.06-13.38,.68-2.02,1.51-3.98,3.1-5.75,.09,.42,.19,.68,.19,.94,.08,7.6,.51,15.17,1.51,22.7,1.38,10.39,3.67,20.53,8.18,30.04,2.73,5.74,6.19,10.94,10.96,15.18,3.69,3.28,7.97,5.16,12.79,5.99,8.47,1.45,16.68,.3,24.77-2.31,11.4-3.68,21.44-9.8,30.52-17.63,8.25-7.12,15.09-15.48,21.25-24.46,5.51-8.03,10.43-16.44,15.41-24.81,9.62-16.17,19.39-32.25,29.04-48.41,3.15-5.27,6.09-10.66,9.17-15.97,2.26-3.91,4.55-7.81,7.43-11.3,2.5-3.02,5.28-5.73,8.56-7.88,1.95-1.28,4-2.31,6.34-2.67,2.82-.42,5.15,.46,7.02,2.59,1.93,2.2,2.88,4.88,3.36,7.72,.27,1.59,.33,3.21,.49,4.94-.29-.15-.42-.17-.44-.23-.97-2.58-2.78-3.32-5.63-2.58-3.44,.89-6.31,2.82-8.7,5.48-2.21,2.46-3.97,5.25-5.67,8.08-8.39,13.95-16.68,27.97-25.22,41.83-8.48,13.78-16.25,27.99-24.4,41.97-5.78,9.91-11.87,19.62-18.88,28.69-7.04,9.1-14.87,17.39-24.2,24.11-8.47,6.1-17.66,10.64-27.79,13.09-8.01,1.94-16.08,2.3-24.12,.14-8.34-2.24-15-6.94-19.75-14.28-1.32-2.04-2.42-4.22-3.62-6.34-.22-.39-.41-.8-.62-1.2-.1,0-.2,0-.3,0Zm-38.59,10.42c.28-.26,.41-.35,.5-.46,3.15-4.01,5.53-8.46,7.24-13.29,1.54-4.36,1.46-8.69-.24-12.96-2.57-6.44-5.86-12.48-10.02-18.01-.19-.26-.45-.46-.84-.84-.7,1.73-1.39,3.24-1.95,4.81-1.92,5.42-3.09,11.04-4.28,16.66-.55,2.6-.87,5.25-.46,7.88,1.05,6.81,4.98,11.82,10.06,16.21Z"/>
    <path class="cls-1" d="M310.3,202.76c-.13-.31-.17-.46-.25-.59-4.79-7.41-7.38-15.66-9.09-24.25-1.86-9.33-1.9-18.72-.92-28.14,1.47-14.07,5.35-27.42,11.79-39.99,.39-.76,.83-1.5,1.33-2.39,.47,.47,.87,.84,1.23,1.23,5.7,6.24,9.89,13.45,13,21.31,3.12,7.88,5.05,16.08,6.13,24.5,.96,7.45,1.1,14.94,.8,22.42-.29,7.11-1.75,14.03-4.23,20.7-.14,.38-.29,.76-.43,1.14-.02,.04,0,.1,0,.31,2.03,.59,4.13,.79,6.28,.63,2.72-.2,5.11-1.2,7.4-2.71,4.28-2.83,7.12-6.81,9.3-11.37,2.23-4.65,3.64-9.58,4.96-14.55,1.09-4.09,1.97-8.21,2.26-12.44,.05-.69-.05-1.42-.24-2.09-1.36-4.99-3.44-9.68-6.16-14.05-2.41-3.88-4.96-7.66-7.49-11.46-2.45-3.67-4.99-7.27-6.85-11.31-.06-.13-.19-.22-.48-.54,.21,1.6,.4,2.96,.57,4.32,.62,5.1,1.33,10.19,1.82,15.31,.56,5.83,.96,11.67,1.34,17.51,.11,1.67-.12,3.36-.22,5.03-.02,.27-.19,.53-.3,.83-.1-.1-.16-.13-.17-.17-1.37-4.73-2.73-9.45-3.11-14.41-.22-2.83-.9-5.62-1.28-8.45-.79-5.85-1.61-11.7-2.27-17.57-.67-5.97-1.22-11.95-1.69-17.94-.44-5.64-.71-11.28-1.05-16.93-.01-.2,.02-.4,.06-.93,.52,.53,.89,.88,1.24,1.27,6.85,7.72,12.63,16.21,17.5,25.34,5.49,10.27,9.55,21.07,11.77,32.55,.91,4.7,1.32,9.46,1.73,14.24,.45,5.29,.69,10.58,.47,15.87-.36,9-1.64,17.85-5.1,26.23-2.46,5.97-5.93,11.22-11.14,15.1-2.52,1.88-5.21,3.47-8.24,4.32-3.43,.97-6.85,.64-10.24-.35-3.51-1.02-6.75-2.58-9.68-4.78-.24-.18-.49-.34-.78-.55-.16,.19-.3,.32-.4,.48-4.37,7.37-10.7,12.45-18.3,16-5.91,2.76-12.15,4.45-18.55,5.5-8.9,1.46-17.86,1.74-26.86,1.32-6.12-.29-12.2-.88-18.24-1.93-.59-.1-1.18-.24-1.79-.56,1.05-.2,2.09-.4,3.14-.59,14.02-2.44,27.7-6.1,40.76-11.93,9.56-4.26,18.49-9.58,26.43-16.51,1.48-1.29,2.85-2.7,4.23-4.02Zm3.63-65c-.87,2.13-1.73,4.01-2.42,5.97-2.43,6.87-3.94,13.99-5.37,21.12-.67,3.35-.94,6.77-.17,10.17,1.73,7.6,6.23,13.31,12,18.24,.24-.22,.44-.37,.59-.57,3.71-4.75,6.59-9.97,8.62-15.67,.89-2.5,1.5-5.07,1.52-7.75,.03-3.27-.75-6.37-1.99-9.34-3.08-7.39-6.88-14.38-11.66-20.79-.29-.39-.62-.76-1.12-1.37Z"/>
    <path class="cls-1" d="M706.3,152.65c2.27-.48,4.21-1.29,6.06-2.31,6.04-3.33,10.53-8.25,13.92-14.24,2.34-4.13,3.95-8.56,4.96-13.22,.15-.7,.05-1.28-.28-1.89-2.19-3.94-5.32-6.85-9.25-8.92-.12-.06-.29-.05-.59-.1,.72,5.47,1.26,10.89,.91,16.6-.75-.51-.84-1.04-.92-1.57-.59-3.72-1.27-7.42-1.74-11.15-.92-7.24-1.07-14.52-1.16-21.81-.02-1.25,.13-2.5,.22-3.99,.77,.36,1.32,.57,1.83,.86,6.15,3.46,9.96,8.78,11.65,15.61,2.22,8.98,3.47,18.1,3.04,27.38-.54,11.72-4.29,22.22-11.94,31.13-3.88,4.52-8.6,7.76-14.44,9.13-2.92,.68-5.87,.59-8.92,.34-.27,.36-.57,.76-.86,1.17-3.7,5.25-8.22,9.58-13.75,12.83-7.35,4.32-15.12,5.7-23.46,3.74-2.33-.55-4.74-.86-7.13-1.05-2.86-.23-5.42,.74-7.7,2.5-2.7,2.07-4.76,4.67-6.24,7.73-2.07,4.3-3.32,8.83-3.4,13.66-.01,.67-.14,1.33-.21,2-.12,0-.25,.02-.37,.02-.19-.66-.44-1.32-.56-1.99-1.36-7.6-1.99-15.25-1.2-22.96,.47-4.54,1.6-8.91,3.85-12.92,1.18-2.1,2.63-3.96,4.4-5.59,2.69-2.47,5.83-3.81,9.45-3.66,2.44,.1,4.9,.42,7.3,.85,3.32,.6,6.65,1.03,10.02,.76,1.59-.13,3.19-.42,4.72-.86,4.78-1.38,9.04-3.83,13.02-6.8-.49-2.18-.99-4.3-1.43-6.43-1.27-6.14-2.1-12.35-2.11-18.63-.02-5.63,.47-11.2,2.56-16.5,.58-1.46,1.32-2.85,2.08-4.23,.39-.7,.93-1.34,1.49-1.91,1.97-1.99,4.24-2.17,6.51-.51,2.12,1.55,3.69,3.58,4.91,5.9,1.55,2.95,2.47,6.12,3.02,9.39,1.12,6.69,1.76,13.42,1.76,20.22,0,.4,0,.81,0,1.41Zm-8.78,.33c1.76-2.3,3.56-6.26,3.97-8.92,.15-.99,.16-2.03,.09-3.04-.11-1.57-.9-2.81-2.27-3.56-2.52-1.37-5.06-1.26-7.22,.74-1.28,1.19-2.19,2.64-2.9,4.23-1.4,3.18-.63,6.15,2.15,8.21,1.82,1.35,3.9,2,6.18,2.34Z"/>
    <path class="cls-1" d="M479.86,146.69c-2.77,4.2-6.24,7.18-11.04,8.34-2.7,.65-5.42,.98-8.19,.38-1.84-.4-3.16-1.43-4.04-3.12-1.47-2.83-2.27-5.87-2.76-9-.67-4.26-.77-8.52,.18-12.75,.49-2.2,1.3-4.28,2.7-6.07,1.75-2.23,4.04-3.44,6.85-3.64,3.93-.28,7.58,.73,10.96,2.66,7.92,4.53,13.01,11.32,15.27,20.27,.95,3.76,1.4,7.6,1.83,11.45,.4,3.61,.48,7.22-.02,10.82-1.08,7.77-3.81,14.77-9.57,20.25-3.93,3.74-8.66,5.73-14,6.44-4.52,.6-8.89-.2-13.27-1.12-3.68-.78-7.34-1.65-11.12-1.76-4.16-.12-7.96,.87-11.22,3.57-3.72,3.08-5.43,7.07-5.12,11.96,.12,1.93,.17,3.87,.16,5.8,0,.69-.2,1.42-.47,2.06-.34,.82-.92,1.45-1.91,1.5-1.04,.05-1.76-.46-2.16-1.36-.38-.87-.75-1.8-.88-2.74-.27-1.96-.35-3.95-.56-5.93-.45-4.21-.53-8.44-.32-12.67,.17-3.46,.56-6.9,1.51-10.25,.7-2.47,1.76-4.76,3.32-6.8,2.81-3.66,6.56-5.55,11.04-6.14,3.86-.51,7.6,.24,11.32,1.1,4.51,1.05,9.05,1.77,13.7,1.66,7.23-.18,13.57-2.5,18.6-7.95,.92-1,1.75-2.1,2.54-3.22,1.24-1.76,1.5-3.73,1.03-5.83-.69-3.07-2.42-5.55-4.36-7.93Z"/>
    <path class="cls-1" d="M54.29,206.25c-.3,.69-.63,1.37-.88,2.07-.34,.96-.65,1.93-.92,2.91-1.65,5.91-7.39,9.73-13.3,9.3-2.13-.16-4.24-.7-6.36-1.08-1.67-.31-3.33-.73-5.02-.94-2.83-.36-5.32,.43-7.45,2.47-3.4,3.25-5.27,7.22-5.86,11.9-.43,3.38-.94,6.75-1.49,10.11-.15,.89-.51,1.75-.88,2.58-.14,.31-.59,.66-.89,.65-.29-.01-.7-.41-.82-.72-.28-.76-.53-1.56-.59-2.35-.48-6.75-1.7-13.44-1.3-20.25,.31-5.18,1.32-10.18,3.63-14.86,1.41-2.85,3.26-5.35,5.45-7.63,2.7-2.81,5.93-3.64,9.63-2.94,2.61,.49,5.19,1.16,7.82,1.51,6.41,.85,11.69-1.67,14.59-7.77,1.46-3.07,2.23-6.33,2.51-9.69,.22-2.68,.2-5.39,.29-8.08,.01-.35,0-.7,0-1.04,1.53-.14,2.5,.36,2.91,1.82,.37,1.3,.52,2.69,.61,4.05,.09,1.26-.04,2.54-.04,3.82,0,.66,.09,1.31,.15,2.1,.31-.14,.58-.17,.71-.33,1.9-2.16,3.8-4.33,5.67-6.51,.64-.74,.67-1.54,.44-2.55-.56-2.47-.96-4.99-1.3-7.51-.28-2.07-.46-4.15-.55-6.23-.06-1.47,.08-2.94,.18-4.41,.06-.9,.55-1.46,1.44-1.73,5.08-1.54,9.71-4.06,14.29-6.7,4.09-2.37,8.21-4.69,12.32-7.03,.51-.29,1.07-.52,1.81-.88,.4,1.44,.8,2.73,1.11,4.05,1.45,6.23,1.58,12.5,.59,18.81-.23,1.46-.85,2.57-2.17,3.27-5.13,2.72-8.94,6.87-12.01,11.73-5.52,8.7-11.65,16.96-17.87,25.14-.49,.64-.98,1.3-1.51,1.9-1.65,1.88-2.58,2.09-4.95,1.08Z"/>
    <path class="cls-1" d="M3.34,179.29c-.83-.34-.96-1.09-1.21-1.72-1.15-2.96-1.74-6.05-2.02-9.2-.13-1.51-.12-3.04-.07-4.56,.06-1.86,.96-3.4,2.08-4.81,1.47-1.85,3.26-3.33,5.27-4.5,2.09-1.21,4.22-2.34,6.36-3.46,3.3-1.73,6.6-3.44,9.34-6.07,.1-.1,.26-.14,.4-.21,.84,.28,1.11,1.05,1.28,1.76,.52,2.17,1.13,4.34,1.36,6.55,.28,2.72,.21,5.48,.27,8.22,.02,1.04-.45,1.88-1.28,2.47-1.81,1.27-3.58,2.62-5.48,3.74-2.29,1.36-4.73,2.46-7.04,3.78-1.74,1-3.43,2.11-5.06,3.28-1.44,1.03-2.61,2.37-3.56,3.9-.18,.29-.41,.54-.63,.83Z"/>
    <path class="cls-1" d="M55.98,242.92c-.4-.72-.79-1.24-1-1.82-1.52-4.19-2.28-8.53-2.23-13,.03-1.96,.67-3.67,1.82-5.23,1.34-1.82,2.98-3.32,4.89-4.47,2.15-1.3,4.37-2.47,6.57-3.69,2.02-1.12,4.08-2.18,6.05-3.38,1.15-.7,2.19-1.6,3.24-2.47,1.05-.86,1.43-.81,2,.43,.27,.6,.48,1.23,.65,1.87,1.14,4.37,1.44,8.82,1.28,13.32-.04,1.13-.43,2.1-1.38,2.75-1.95,1.33-3.86,2.74-5.89,3.94-2.25,1.33-4.64,2.4-6.91,3.71-1.74,1.01-3.46,2.08-5,3.36-1.23,1.01-2.18,2.36-3.25,3.57-.26,.29-.47,.62-.85,1.12Z"/>
    <path class="cls-1" d="M636.3,162.21c-.31-.54-.68-1.02-.88-1.55-1.64-4.43-2.44-9.02-2.25-13.76,.06-1.46,.56-2.78,1.35-3.99,1.32-2.03,3.04-3.68,5.07-4.93,2.22-1.37,4.51-2.65,6.82-3.86,3.48-1.82,6.99-3.58,9.87-6.35,.1-.1,.27-.12,.43-.19,.74,.3,1.02,.97,1.19,1.65,.51,2.12,1.12,4.24,1.38,6.39,.3,2.57,.27,5.18,.37,7.77,.05,1.42-.49,2.52-1.6,3.43-2.04,1.68-4.27,3.02-6.58,4.26-2.26,1.21-4.54,2.37-6.78,3.63-3.15,1.76-6.01,3.89-7.88,7.12-.07,.11-.22,.17-.5,.38Z"/>
    <path class="cls-1" d="M506.98,144.76c-.37-.68-.72-1.17-.93-1.71-1.55-4.03-2.21-8.23-2.33-12.53-.07-2.56,.88-4.76,2.55-6.66,1.48-1.69,3.2-3.09,5.13-4.2,2.09-1.2,4.23-2.33,6.36-3.45,3.12-1.63,6.24-3.26,8.86-5.7,.68-.64,1.08-.56,1.52,.28,.33,.62,.58,1.3,.77,1.98,1.22,4.46,1.5,9.01,1.32,13.62-.05,1.16-.44,2.08-1.39,2.73-1.95,1.33-3.86,2.74-5.89,3.94-2.29,1.35-4.71,2.48-7.05,3.77-2.34,1.29-4.6,2.72-6.42,4.74-.84,.93-1.56,1.97-2.52,3.21Z"/>
    <path class="cls-1" d="M411.15,162.18c-.48-.84-.84-1.32-1.04-1.86-1.57-4.29-2.36-8.72-2.25-13.3,.04-1.74,.59-3.28,1.57-4.69,1.23-1.77,2.75-3.25,4.54-4.41,1.6-1.05,3.24-2.03,4.92-2.93,4.29-2.29,8.81-4.2,12.32-7.72,.92,.22,1.21,.92,1.37,1.58,.53,2.17,1.15,4.33,1.42,6.54,.3,2.52,.27,5.08,.37,7.62,.06,1.47-.41,2.7-1.65,3.55-1.74,1.19-3.45,2.45-5.26,3.53-1.9,1.13-3.91,2.07-5.85,3.12-1.33,.72-2.65,1.45-3.92,2.26-2.58,1.63-4.82,3.63-6.53,6.72Z"/>
    <path class="cls-1" d="M673.85,115.94c-.34-.59-.7-1.07-.91-1.61-1.55-4.03-2.22-8.23-2.34-12.53-.07-2.49,.8-4.67,2.43-6.56,1.4-1.63,3-3.02,4.84-4.08,2.53-1.45,5.1-2.83,7.67-4.19,2.81-1.48,5.57-3.02,7.93-5.21,.71-.66,1.08-.59,1.54,.22,.27,.48,.49,1.01,.65,1.54,1.36,4.64,1.65,9.39,1.45,14.2-.05,1.1-.52,1.9-1.34,2.61-1.96,1.7-4.15,3.02-6.41,4.24-2.48,1.34-4.99,2.6-7.44,3.99-3.01,1.7-5.72,3.77-7.52,6.86-.09,.16-.27,.27-.55,.52Z"/>
    <path class="cls-1" d="M446.65,103.96c.51-1.16,.91-2.2,1.4-3.19,1.88-3.82,3.77-7.63,5.69-11.43,.46-.9,1.02-1.75,1.6-2.58,.87-1.24,1.01-1.29,2.34-.72,2.76,1.18,5.55,2.33,8.26,3.63,1.62,.78,3.14,1.79,4.65,2.78,1.09,.71,1.08,.87,.61,2.15-.14,.38-.27,.77-.47,1.12-2.73,4.85-5.47,9.7-8.22,14.54-.22,.39-.54,.72-.92,1.23-4.5-3.48-9.74-5.36-14.92-7.55Z"/>
    <path class="cls-1" d="M731.32,199.57c-2.51-1.4-4.87-2.84-7.33-4.05-2.47-1.21-5.05-2.19-7.65-3.3,.08-.28,.11-.53,.22-.74,2.33-4.78,4.65-9.57,7.02-14.33,.47-.94,1.15-1.78,1.75-2.66,.37-.54,.85-.64,1.44-.4,4.54,1.88,9.16,3.58,13.22,6.47,1.26,.9,1.31,1.02,.7,2.5-.37,.89-.76,1.78-1.23,2.61-2.29,4.06-4.6,8.1-6.93,12.14-.37,.65-.85,1.24-1.21,1.76Z"/>
    <path class="cls-1" d="M281.92,203.42c-.48-.41-.78-.68-1.09-.92-.84-.64-1.74-.52-2.34,.35-1.06,1.52-.8,3.97,1.2,4.73,.56,.21,1.13,.41,1.66,.7,1.58,.85,2.12,2.24,1.59,3.98-.04,.15-.07,.3-.14,.43-1.75,3.01-4.08,5.32-7.6,5.92-2.33,.39-4.66,.14-7.11-.91,1.79-.19,3.35-.27,4.87-.56,.97-.18,1.92-.57,2.8-1.04,.97-.52,1.02-1.18,.22-1.94-.5-.48-1.09-.91-1.71-1.23-1.65-.88-2.22-2.21-1.92-4.04,.26-1.6,.85-3.04,1.87-4.27,2.07-2.5,4.32-4.83,7-6.65,.94-.64,2.02-1.12,3.11-1.47,1.24-.4,2.41,.21,3.1,1.3,.38,.6,.39,1.13-.1,1.66-.14,.15-.27,.31-.43,.43-1.63,1.17-3.28,2.33-4.98,3.54Z"/>
  </g>
  <g>
    <rect class="cls-1" x="909.09" y="127.78" width="11.25" height="11.17"/>
    <rect class="cls-1" x="895.02" y="127.78" width="11.25" height="11.17"/>
    <rect class="cls-1" x="880.94" y="127.78" width="11.25" height="11.17"/>
    <rect class="cls-1" x="993.54" y="127.78" width="11.25" height="11.17"/>
    <rect class="cls-1" x="979.47" y="127.78" width="11.25" height="11.17"/>
    <rect class="cls-1" x="965.39" y="127.78" width="11.25" height="11.17"/>
    <path class="cls-3" d="M1047.15,89.33c0-.15-.02-.26-.02-.37,0-7.28,.02-14.57,.03-21.85,0-.18,.08-.39,.18-.52,.53-.69,1.09-1.35,1.62-2.04,.11-.15,.19-.39,.19-.6,.02-3.87,.02-7.74,.02-11.62v-.42h-3.39c-.45,0-.55-.13-.55-.68,0-3.45,0-6.9,.01-10.35,0-.13,.01-.27,.02-.41,.12,0,.2,0,.29-.02,.89-.1,1.6-.55,1.91-1.63,.12-.41,.19-.87,.22-1.31,.09-1.41-.14-2.79-.34-4.18-.12-.88-.35-1.75-.21-2.62-.69,0-1.38,.04-2.06-.02-.47-.04-.55-.21-.54-.76,0-3.63,0-7.26,.02-10.89,0-.78-.25-1.32-.78-1.71-.31-.23-.64-.45-.94-.7-.22-.18-.43-.41-.42-.79,.79-.22,1.04-.54,1-1.42-.02-.4-.1-.81-.2-1.19-.23-.82-.64-1.51-1.19-2.08,.53-.93,.65-1.94,.4-2.98-.18-.74-.46-1.45-.7-2.17-.07-.2-.16-.39-.25-.62-.73,1.89-1.65,3.69-.55,5.77-.07,.08-.14,.15-.2,.22-.73,.89-1.2,1.93-1.2,3.22,0,.69,.28,1.06,.83,1.19,.06,.01,.12,.03,.29,.07-.19,.29-.32,.56-.5,.73-.31,.28-.66,.5-.99,.75-.52,.38-.76,.91-.76,1.68,.02,3.63,0,7.26,0,10.89,0,.55-.09,.7-.54,.78-.29,.05-.58,.08-.88,.07-.4-.01-.81-.07-1.17-.11,0,.29,.03,.58,0,.85-.13,1.02-.28,2.04-.42,3.06-.16,1.19-.28,2.38-.1,3.58,.19,1.32,.78,2.03,1.85,2.25,.16,.03,.32,.05,.48,.08,0,.04,.01,.05,.01,.06v10.85c0,.33-.14,.51-.43,.5-.73-.01-1.47,0-2.2,0h-1.26c-.01,.1-.02,.16-.02,.22,0,3.99-.01,7.98-.01,11.96,0,.13,.07,.29,.14,.39,.54,.68,1.07,1.36,1.63,2.03,.17,.21,.24,.41,.24,.7-.01,7.22-.02,14.44-.03,21.66v.46h-3.29v.46c0,4.38,0,8.77-.02,13.15,0,.27,.06,.45,.23,.62,.94,.94,1.87,1.89,2.82,2.83h-.02c.18,.18,.25,.36,.25,.65-.01,4.1-.01,8.2-.02,12.3h.14v61.69h11.25v-61.69h.09v-12.3c0-.28,.07-.47,.25-.64,.94-.92,1.86-1.87,2.8-2.79,.17-.17,.24-.34,.24-.61,0-4.4,0-8.79,0-13.19v-.44h-3.26Zm-4.08-68.75c0-.38,.16-.58,.42-.58,.28,0,.42,.2,.42,.61v8.08c0,.43-.13,.61-.41,.62-.28,0-.43-.2-.43-.61,0-2.71,0-5.41,.01-8.12h-.01Zm-2.04,3.9v-4.26h.01c0-.43,.14-.63,.43-.64,.3,0,.45,.21,.45,.66v4.45c0,1.48-.02,2.97,0,4.45,0,.52-.43,.75-.68,.52-.12-.11-.21-.35-.21-.54-.01-1.55,0-3.09,0-4.64Zm-2.01,.14v.02s.01-3.99,.01-3.99c0-.44,.15-.66,.43-.66s.43,.21,.43,.65v8.01c0,.31-.05,.57-.34,.64-.31,.09-.53-.16-.53-.64v-4.03Z"/>
    <rect class="cls-1" x="965.39" y="141.79" width="11.25" height="11.17"/>
    <rect class="cls-1" x="965.39" y="155.81" width="11.25" height="11.17"/>
    <path class="cls-3" d="M993.54,183.83v42.03h-2.82v-42.03h-11.25v42.03h-2.83v-42.03h-11.25v42.03h-2.83v-42.24c.05-4.6,.09-9.2,.14-13.81l-.14-56.05h-11.25v56.05h-.03v11.17c.01,.45,.02,.89,.03,1.34v-1.16s.01,.07,.01,.12c0,.04,0,.08-.01,.12v30.44h-2.83v-29.94h-11.25v55.13h67.55v-53.21h-11.24Zm-42.22,42.04h-2.83v-2.84h2.83v2.84Z"/>
    <rect class="cls-1" x="880.94" y="183.83" width="11.25" height="11.17"/>
    <rect class="cls-1" x="866.86" y="183.83" width="11.25" height="11.17"/>
    <rect class="cls-1" x="881.32" y="239.91" width="11.25" height="11.17"/>
    <rect class="cls-1" x="867.24" y="239.91" width="11.25" height="11.17"/>
    <rect class="cls-3" x="937.24" y="113.77" width="11.25" height="55.14"/>
    <path class="cls-3" d="M949.56,180.99h.73v-11.17c-3.55,0-15.12,.04-15.19,0h-.68v-56.05h-11.25v67.22l26.13-.08c.1,0,.19,.03,.26,.08Z"/>
    <path class="cls-3" d="M1032.94,113.59c.17-.54,.29-1.11,.29-1.71,0-2.5-1.59-4.6-3.81-5.41v-.08c0-.85-.54-1.57-1.3-1.84l-.28-.84c.05-.07,.09-.16,.09-.26,0-.19-.12-.36-.28-.43l-.17-2.66s-.01-.02-.03-.02c-.01,0-.03,0-.03,.02l-.17,2.66c-.17,.07-.28,.24-.28,.43,0,.1,.04,.19,.09,.26l-.28,.84c-.76,.27-1.3,.99-1.3,1.84v.08c-2.22,.8-3.81,2.91-3.81,5.41,0,.6,.12,1.16,.29,1.71h-.95v3.24h.68v52.99h-2.83v-42.03h-11.25v42.03h-2.82v-28.02h-25.33v25.18h14.07v2.84h-29.84v11.17h69.24V116.83h.59v-3.24h-.58Zm-39.4,42.21h-2.82v-2.84h2.82v2.84Z"/>
    <path class="cls-3" d="M1021.69,183.83v28.02h-2.83v-28.02h-11.25v53.21h25.33v-53.21h-11.25Zm0,42.03h-2.83v-2.84h2.83v2.84Z"/>
    <path class="cls-3" d="M909.09,183.83v42.03h-2.83v-42.03h-11.25v42.03h-2.83v-28.02h-25.32v11.17h14.07v2.84h-14.07v25.18h67.56v-53.21h-25.33Zm-28.15,42.04h-2.82v-2.84h2.82v2.84Zm42.23,0h-2.83v-30.86h2.83v30.86Z"/>
    <g>
      <path class="cls-3" d="M895.02,141.8v25.18h14.07v2.84h-16.9v-28.02h-14.07v-11.02h.03c0-4.39,0-8.78-.01-13.17,0-.3,.07-.5,.25-.69,.92-.99,1.83-2,2.76-2.99,.17-.18,.23-.37,.23-.66v-14.59h-3.21c0-.16-.02-.28-.02-.4v-23.39c0-.19,.08-.42,.18-.56,.52-.74,1.07-1.44,1.59-2.19,.11-.16,.19-.42,.19-.64,.01-4.14,0-8.29,0-12.43v-.44h-3.34c-.44,0-.54-.14-.54-.72v-11.08c0-.14,.01-.29,.02-.43,.12,0,.2-.01,.28-.02,.88-.1,1.57-.59,1.88-1.74,.12-.44,.19-.93,.21-1.4,.09-1.51-.14-2.99-.34-4.47-.12-.94-.35-1.88-.21-2.8-.68,0-1.36,.04-2.03-.01-.46-.04-.54-.22-.54-.82v-11.65c0-.83-.24-1.41-.77-1.82-.31-.24-.63-.48-.92-.75-.22-.2-.42-.44-.41-.84,.78-.23,1.02-.58,.99-1.52-.02-.43-.1-.87-.2-1.27-.23-.88-.63-1.62-1.18-2.23,.52-1,.64-2.08,.39-3.19-.18-.79-.45-1.55-.69-2.32-.07-.21-.16-.42-.25-.66-.72,2.02-1.62,3.95-.54,6.18-.07,.09-.14,.16-.19,.24-.71,.96-1.18,2.07-1.18,3.45,0,.74,.28,1.13,.82,1.27,.06,.01,.12,.03,.28,.07-.19,.31-.31,.6-.49,.78-.3,.3-.65,.54-.97,.8-.51,.41-.75,.97-.75,1.8,.02,3.88,0,7.77,0,11.65,0,.59-.09,.75-.53,.84-.28,.06-.58,.09-.86,.08-.4-.01-.79-.07-1.16-.11,0,.31,.03,.62,0,.91-.12,1.09-.27,2.18-.41,3.27-.15,1.27-.27,2.55-.1,3.83,.19,1.41,.77,2.17,1.83,2.4,.16,.04,.32,.06,.47,.09,0,.04,.01,.06,.01,.07v11.61c0,.36-.14,.54-.43,.54-.72-.01-1.45,0-2.17,0h-1.24c0,.11-.02,.17-.02,.24v12.8c0,.14,.07,.31,.14,.42,.53,.73,1.06,1.46,1.61,2.17,.17,.22,.23,.44,.23,.75v23.67h-3.22v14.54c0,.29,.06,.48,.23,.66,.93,1,1.85,2.02,2.78,3.02,.18,.19,.24,.39,.24,.69v13.16h.02v22.19h14.07v2.84h-14.07v25.19h53.48v-39.2h-25.32Zm-20.98-116.65h.01c0-.41,.15-.63,.41-.63s.42,.22,.42,.66v8.65c0,.46-.13,.66-.41,.66s-.42-.21-.43-.65v-8.69Zm-2,4.17v-4.55h.01c0-.47,.14-.69,.43-.7,.3,0,.44,.22,.44,.7v4.76c0,1.59-.02,3.17,0,4.76,.01,.56-.43,.81-.67,.56-.11-.12-.2-.38-.21-.57-.02-1.65,0-3.31,0-4.96Zm-1.97-4.1c0-.47,.14-.7,.42-.7s.43,.23,.43,.69v8.57c0,.33-.05,.61-.33,.69-.31,.09-.52-.17-.52-.68v-8.57Zm10.87,144.59h-2.82v-2.84h2.82v2.84Zm28.15-14.01h-2.83v-2.84h2.83v2.84Z"/>
      <path class="cls-3" d="M872.21,1.23c-.23,1.2-.55,2.45,.38,3.4,.53,.55,1.35,.82,2.32-.06-.19,.87-.89,1.44-1.75,1.42-.8-.01-1.47-.79-1.7-1.97-.23-1.13,.08-2.26,.75-2.79Z"/>
    </g>
    <path class="cls-4" d="M1041.24,1.04c-.24,1.13-.56,2.29,.38,3.18,.54,.51,1.37,.77,2.36-.06-.2,.81-.9,1.34-1.78,1.33-.81-.01-1.49-.74-1.73-1.85-.23-1.05,.08-2.11,.77-2.6h0Z"/>
    <path class="cls-3" d="M965.28,125.12h52.64c.08,0,.16,.02,.24,.02,.38,0,.76-.01,1.15-.02v-11.35h-1.68c.65-2.16,1-4.45,1-6.82,0-11.83-8.71-21.56-19.92-22.89l-1.42-4.43s-.14-.08-.33-.11l-.78-12.29s-.05-.08-.1-.08-.1,.03-.1,.08l-.78,12.29c-.19,.03-.31,.07-.33,.11l-1.43,4.43c-8.39,1-15.38,6.7-18.36,14.47l-.24-12.94h1.19v-2.3h-1.23l-.3-16.41h1.35v-1.33h-.79v-.45h-.81v-5.97h.81v-.57h-1.27c.11-.36,.17-.73,.17-1.13,0-1.37-.71-2.56-1.77-3.23-.65-.42-1.22-.96-1.66-1.59h0c.08-.08,.13-.19,.13-.32,0-.18-.1-.33-.26-.4l-.1-1.53c.06,0,.13,.02,.2,.02,.56,0,1.03-.43,1.1-.99-.15,.32-.47,.54-.84,.54-.51,0-.94-.43-.94-.96,0-.38,.22-.71,.53-.86-.54,.07-.97,.55-.97,1.13,0,.5,.32,.93,.77,1.08l-.1,1.57c-.15,.07-.26,.22-.26,.4,0,.13,.05,.24,.13,.32-.44,.64-1.01,1.17-1.67,1.59-1.06,.67-1.77,1.87-1.77,3.23,0,.39,.06,.77,.17,1.13h-1.27v.57h.78v5.97h-.78v.45h-.8v1.33h1.36l-.31,16.41h-1.24v2.3h1.19l-.33,17.91v21.61h.03Zm7.5-64.89c0-.18,.14-.32,.32-.32h.15c.17,0,.31,.14,.31,.32v4.89h-.79v-4.89h.01Zm-1.47,0c0-.18,.14-.32,.32-.32h.15c.17,0,.31,.14,.31,.32v4.89h-.79v-4.89h.01Zm-1.48,0c0-.18,.14-.32,.32-.32h.15c.17,0,.31,.14,.31,.32v4.89h-.79v-4.89h.01Zm-1.48,0c0-.18,.14-.32,.32-.32h.15c.17,0,.32,.14,.32,.32v4.89h-.79v-4.89Zm-1.47,0c0-.18,.14-.32,.31-.32h.15c.17,0,.32,.14,.32,.32v4.89h-.79v-4.89h.01Z"/>
    <path class="cls-3" d="M881.65,124.92h37.06c.31,0,.62,.01,.92,.03v-11.33h-1.27c.54-1.37,.83-2.82,.83-4.33,0-5.26-3.52-9.87-8.8-12.44-3.44-1.68-6.37-3.93-8.65-6.56,.09-.23,.15-.48,.15-.76,0-.69-.31-1.28-.74-1.54l-.32-6.64h-.36l-.32,6.64c-.43,.26-.74,.85-.74,1.54,0,.28,.06,.53,.15,.76-2.29,2.64-5.18,4.87-8.65,6.56-5.28,2.58-8.8,7.18-8.8,12.44,0,.88,.12,1.73,.3,2.57h-.76v13.06Z"/>
    <path class="cls-3" d="M962.48,108.58v3.02h-39.31v-3.02h1.13c.19-9.34,7.27-16.97,16.36-18.03l1.17-3.56s.12-.07,.27-.09l.62-9.62h0c-.16-.03-.35-.07-.57-.13,0,0-.3-.08-.55-.16-.59-.2-1.17-.51-1.43-.66-2.41-1.38-4.05-3.96-4.05-6.94,0-4.07,3.04-7.43,6.97-7.94-2.26,1.08-3.82,3.39-3.82,6.06,0,3.72,3.02,6.74,6.74,6.74,2.67,0,4.97-1.56,6.06-3.82-.51,3.93-3.87,6.97-7.94,6.97-.41,0-.82-.04-1.21-.1l.62,9.6c.15,.02,.27,.09,.27,.09l1.17,3.56c9.1,1.06,16.17,8.7,16.36,18.03h1.14Z"/>
    <polygon class="cls-3" points="1047.02 183.83 1047.02 240.65 1047.01 240.65 1047.01 250.82 895.55 250.82 895.55 239.65 1035.77 239.65 1035.77 183.83 1047.02 183.83"/>
    <path class="cls-2" d="M950.37,181c-16.68-.02-3.1-.02-3.1-.02"/>
  </g>
</svg>