<?xml version="1.0" encoding="UTF-8"?>
<svg id="Layer_1" data-name="Layer 1" xmlns="http://www.w3.org/2000/svg" viewBox="0 0 187.82 251.32">
  <defs>
    <style>
      .cls-1 {
        fill: #00425a;
      }

      .cls-2 {
        stroke: #231f20;
        stroke-width: .25px;
      }

      .cls-2, .cls-3 {
        stroke-miterlimit: 10;
      }

      .cls-3 {
        stroke: #00425a;
      }

      .cls-3, .cls-4 {
        fill: #399;
      }
    </style>
  </defs>
  <rect class="cls-1" x="46" y="127.78" width="11.25" height="11.17"/>
  <rect class="cls-1" x="31.93" y="127.78" width="11.25" height="11.17"/>
  <rect class="cls-1" x="17.85" y="127.78" width="11.25" height="11.17"/>
  <rect class="cls-1" x="130.45" y="127.78" width="11.25" height="11.17"/>
  <rect class="cls-1" x="116.38" y="127.78" width="11.25" height="11.17"/>
  <rect class="cls-1" x="102.3" y="127.78" width="11.25" height="11.17"/>
  <path class="cls-3" d="M184.06,89.33c0-.15-.02-.26-.02-.37,0-7.28,.02-14.57,.03-21.85,0-.18,.08-.39,.18-.52,.53-.69,1.09-1.35,1.62-2.04,.11-.15,.19-.39,.19-.6,.02-3.87,.02-7.74,.02-11.62v-.42h-3.39c-.45,0-.55-.13-.55-.68,0-3.45,0-6.9,.01-10.35,0-.13,.01-.27,.02-.41,.12,0,.2,0,.29-.02,.89-.1,1.6-.55,1.91-1.63,.12-.41,.19-.87,.22-1.31,.09-1.41-.14-2.79-.34-4.18-.12-.88-.35-1.75-.21-2.62-.69,0-1.38,.04-2.06-.02-.47-.04-.55-.21-.54-.76,0-3.63,0-7.26,.02-10.89,0-.78-.25-1.32-.78-1.71-.31-.23-.64-.45-.94-.7-.22-.18-.43-.41-.42-.79,.79-.22,1.04-.54,1-1.42-.02-.4-.1-.81-.2-1.19-.23-.82-.64-1.51-1.19-2.08,.53-.93,.65-1.94,.4-2.98-.18-.74-.46-1.45-.7-2.17-.07-.2-.16-.39-.25-.62-.73,1.89-1.65,3.69-.55,5.77-.07,.08-.14,.15-.2,.22-.73,.89-1.2,1.93-1.2,3.22,0,.69,.28,1.06,.83,1.19,.06,.01,.12,.03,.29,.07-.19,.29-.32,.56-.5,.73-.31,.28-.66,.5-.99,.75-.52,.38-.76,.91-.76,1.68,.02,3.63,0,7.26,0,10.89,0,.55-.09,.7-.54,.78-.29,.05-.58,.08-.88,.07-.4-.01-.81-.07-1.17-.11,0,.29,.03,.58,0,.85-.13,1.02-.28,2.04-.42,3.06-.16,1.19-.28,2.38-.1,3.58,.19,1.32,.78,2.03,1.85,2.25,.16,.03,.32,.05,.48,.08,0,.04,.01,.05,.01,.06v10.85c0,.33-.14,.51-.43,.5-.73-.01-1.47,0-2.2,0h-1.26c-.01,.1-.02,.16-.02,.22,0,3.99-.01,7.98-.01,11.96,0,.13,.07,.29,.14,.39,.54,.68,1.07,1.36,1.63,2.03,.17,.21,.24,.41,.24,.7-.01,7.22-.02,14.44-.03,21.66v.46h-3.29v.46c0,4.38,0,8.77-.02,13.15,0,.27,.06,.45,.23,.62,.94,.94,1.87,1.89,2.82,2.83h-.02c.18,.18,.25,.36,.25,.65-.01,4.1-.01,8.2-.02,12.3h.14v61.69h11.25v-61.69h.09v-12.3c0-.28,.07-.47,.25-.64,.94-.92,1.86-1.87,2.8-2.79,.17-.17,.24-.34,.24-.61,0-4.4,0-8.79,0-13.19v-.44h-3.26Zm-4.08-68.75c0-.38,.16-.58,.42-.58,.28,0,.42,.2,.42,.61v8.08c0,.43-.13,.61-.41,.62-.28,0-.43-.2-.43-.61,0-2.71,0-5.41,.01-8.12h-.01Zm-2.04,3.9v-4.26h.01c0-.43,.14-.63,.43-.64,.3,0,.45,.21,.45,.66v4.45c0,1.48-.02,2.97,0,4.45,0,.52-.43,.75-.68,.52-.12-.11-.21-.35-.21-.54-.01-1.55,0-3.09,0-4.64Zm-2.01,.14v.02s.01-3.99,.01-3.99c0-.44,.15-.66,.43-.66s.43,.21,.43,.65v8.01c0,.31-.05,.57-.34,.64-.31,.09-.53-.16-.53-.64v-4.03Z"/>
  <rect class="cls-1" x="102.3" y="141.79" width="11.25" height="11.17"/>
  <rect class="cls-1" x="102.3" y="155.81" width="11.25" height="11.17"/>
  <path class="cls-3" d="M130.45,183.83v42.03h-2.82v-42.03h-11.25v42.03h-2.83v-42.03h-11.25v42.03h-2.83v-42.24c.05-4.6,.09-9.2,.14-13.81l-.14-56.05h-11.25v56.05h-.03v11.17c.01,.45,.02,.89,.03,1.34v-1.16s.01,.07,.01,.12c0,.04,0,.08-.01,.12v30.44h-2.83v-29.94h-11.25v55.13h67.55v-53.21h-11.24Zm-42.22,42.04h-2.83v-2.84h2.83v2.84Z"/>
  <rect class="cls-1" x="17.85" y="183.83" width="11.25" height="11.17"/>
  <rect class="cls-1" x="3.77" y="183.83" width="11.25" height="11.17"/>
  <rect class="cls-1" x="18.23" y="239.91" width="11.25" height="11.17"/>
  <rect class="cls-1" x="4.15" y="239.91" width="11.25" height="11.17"/>
  <rect class="cls-3" x="74.15" y="113.77" width="11.25" height="55.14"/>
  <path class="cls-3" d="M86.47,180.99h.73v-11.17c-3.55,0-15.12,.04-15.19,0h-.68v-56.05h-11.25v67.22l26.13-.08c.1,0,.19,.03,.26,.08Z"/>
  <path class="cls-3" d="M169.85,113.59c.17-.54,.29-1.11,.29-1.71,0-2.5-1.59-4.6-3.81-5.41v-.08c0-.85-.54-1.57-1.3-1.84l-.28-.84c.05-.07,.09-.16,.09-.26,0-.19-.12-.36-.28-.43l-.17-2.66s-.01-.02-.03-.02c-.01,0-.03,0-.03,.02l-.17,2.66c-.17,.07-.28,.24-.28,.43,0,.1,.04,.19,.09,.26l-.28,.84c-.76,.27-1.3,.99-1.3,1.84v.08c-2.22,.8-3.81,2.91-3.81,5.41,0,.6,.12,1.16,.29,1.71h-.95v3.24h.68v52.99h-2.83v-42.03h-11.25v42.03h-2.82v-28.02h-25.33v25.18h14.07v2.84h-29.84v11.17h69.24V116.83h.59v-3.24h-.58Zm-39.4,42.21h-2.82v-2.84h2.82v2.84Z"/>
  <path class="cls-3" d="M158.6,183.83v28.02h-2.83v-28.02h-11.25v53.21h25.33v-53.21h-11.25Zm0,42.03h-2.83v-2.84h2.83v2.84Z"/>
  <path class="cls-3" d="M46,183.83v42.03h-2.83v-42.03h-11.25v42.03h-2.83v-28.02H3.77v11.17h14.07v2.84H3.77v25.18H71.33v-53.21h-25.33Zm-28.15,42.04h-2.82v-2.84h2.82v2.84Zm42.23,0h-2.83v-30.86h2.83v30.86Z"/>
  <g>
    <path class="cls-3" d="M31.93,141.8v25.18h14.07v2.84H29.1v-28.02H15.03v-11.02h.03c0-4.39,0-8.78-.01-13.17,0-.3,.07-.5,.25-.69,.92-.99,1.83-2,2.76-2.99,.17-.18,.23-.37,.23-.66v-14.59h-3.21c0-.16-.02-.28-.02-.4v-23.39c0-.19,.08-.42,.18-.56,.52-.74,1.07-1.44,1.59-2.19,.11-.16,.19-.42,.19-.64,.01-4.14,0-8.29,0-12.43v-.44h-3.34c-.44,0-.54-.14-.54-.72v-11.08c0-.14,.01-.29,.02-.43,.12,0,.2-.01,.28-.02,.88-.1,1.57-.59,1.88-1.74,.12-.44,.19-.93,.21-1.4,.09-1.51-.14-2.99-.34-4.47-.12-.94-.35-1.88-.21-2.8-.68,0-1.36,.04-2.03-.01-.46-.04-.54-.22-.54-.82v-11.65c0-.83-.24-1.41-.77-1.82-.31-.24-.63-.48-.92-.75-.22-.2-.42-.44-.41-.84,.78-.23,1.02-.58,.99-1.52-.02-.43-.1-.87-.2-1.27-.23-.88-.63-1.62-1.18-2.23,.52-1,.64-2.08,.39-3.19-.18-.79-.45-1.55-.69-2.32-.07-.21-.16-.42-.25-.66-.72,2.02-1.62,3.95-.54,6.18-.07,.09-.14,.16-.19,.24-.71,.96-1.18,2.07-1.18,3.45,0,.74,.28,1.13,.82,1.27,.06,.01,.12,.03,.28,.07-.19,.31-.31,.6-.49,.78-.3,.3-.65,.54-.97,.8-.51,.41-.75,.97-.75,1.8,.02,3.88,0,7.77,0,11.65,0,.59-.09,.75-.53,.84-.28,.06-.58,.09-.86,.08-.4-.01-.79-.07-1.16-.11,0,.31,.03,.62,0,.91-.12,1.09-.27,2.18-.41,3.27-.15,1.27-.27,2.55-.1,3.83,.19,1.41,.77,2.17,1.83,2.4,.16,.04,.32,.06,.47,.09,0,.04,.01,.06,.01,.07v11.61c0,.36-.14,.54-.43,.54-.72-.01-1.45,0-2.17,0H1.76c0,.11-.02,.17-.02,.24v12.8c0,.14,.07,.31,.14,.42,.53,.73,1.06,1.46,1.61,2.17,.17,.22,.23,.44,.23,.75v23.67H.5v14.54c0,.29,.06,.48,.23,.66,.93,1,1.85,2.02,2.78,3.02,.18,.19,.24,.39,.24,.69v13.16h.02v22.19h14.07v2.84H3.77v25.19H57.25v-39.2H31.93ZM10.95,25.15h.01c0-.41,.15-.63,.41-.63s.42,.22,.42,.66v8.65c0,.46-.13,.66-.41,.66s-.42-.21-.43-.65v-8.69Zm-2,4.17v-4.55h.01c0-.47,.14-.69,.43-.7,.3,0,.44,.22,.44,.7v4.76c0,1.59-.02,3.17,0,4.76,.01,.56-.43,.81-.67,.56-.11-.12-.2-.38-.21-.57-.02-1.65,0-3.31,0-4.96Zm-1.97-4.1c0-.47,.14-.7,.42-.7s.43,.23,.43,.69v8.57c0,.33-.05,.61-.33,.69-.31,.09-.52-.17-.52-.68v-8.57Zm10.87,144.59h-2.82v-2.84h2.82v2.84Zm28.15-14.01h-2.83v-2.84h2.83v2.84Z"/>
    <path class="cls-3" d="M9.12,1.23c-.23,1.2-.55,2.45,.38,3.4,.53,.55,1.35,.82,2.32-.06-.19,.87-.89,1.44-1.75,1.42-.8-.01-1.47-.79-1.7-1.97-.23-1.13,.08-2.26,.75-2.79Z"/>
  </g>
  <path class="cls-4" d="M178.15,1.04c-.24,1.13-.56,2.29,.38,3.18,.54,.51,1.37,.77,2.36-.06-.2,.81-.9,1.34-1.78,1.33-.81-.01-1.49-.74-1.73-1.85-.23-1.05,.08-2.11,.77-2.6h0Z"/>
  <path class="cls-3" d="M102.19,125.12h52.64c.08,0,.16,.02,.24,.02,.38,0,.76-.01,1.15-.02v-11.35h-1.68c.65-2.16,1-4.45,1-6.82,0-11.83-8.71-21.56-19.92-22.89l-1.42-4.43s-.14-.08-.33-.11l-.78-12.29s-.05-.08-.1-.08-.1,.03-.1,.08l-.78,12.29c-.19,.03-.31,.07-.33,.11l-1.43,4.43c-8.39,1-15.38,6.7-18.36,14.47l-.24-12.94h1.19v-2.3h-1.23l-.3-16.41h1.35v-1.33h-.79v-.45h-.81v-5.97h.81v-.57h-1.27c.11-.36,.17-.73,.17-1.13,0-1.37-.71-2.56-1.77-3.23-.65-.42-1.22-.96-1.66-1.59h0c.08-.08,.13-.19,.13-.32,0-.18-.1-.33-.26-.4l-.1-1.53c.06,0,.13,.02,.2,.02,.56,0,1.03-.43,1.1-.99-.15,.32-.47,.54-.84,.54-.51,0-.94-.43-.94-.96,0-.38,.22-.71,.53-.86-.54,.07-.97,.55-.97,1.13,0,.5,.32,.93,.77,1.08l-.1,1.57c-.15,.07-.26,.22-.26,.4,0,.13,.05,.24,.13,.32-.44,.64-1.01,1.17-1.67,1.59-1.06,.67-1.77,1.87-1.77,3.23,0,.39,.06,.77,.17,1.13h-1.27v.57h.78v5.97h-.78v.45h-.8v1.33h1.36l-.31,16.41h-1.24v2.3h1.19l-.33,17.91v21.61h.03Zm7.5-64.89c0-.18,.14-.32,.32-.32h.15c.17,0,.31,.14,.31,.32v4.89h-.79v-4.89h.01Zm-1.47,0c0-.18,.14-.32,.32-.32h.15c.17,0,.31,.14,.31,.32v4.89h-.79v-4.89h.01Zm-1.48,0c0-.18,.14-.32,.32-.32h.15c.17,0,.31,.14,.31,.32v4.89h-.79v-4.89h.01Zm-1.48,0c0-.18,.14-.32,.32-.32h.15c.17,0,.32,.14,.32,.32v4.89h-.79v-4.89Zm-1.47,0c0-.18,.14-.32,.31-.32h.15c.17,0,.32,.14,.32,.32v4.89h-.79v-4.89h.01Z"/>
  <path class="cls-3" d="M18.56,124.92H55.62c.31,0,.62,.01,.92,.03v-11.33h-1.27c.54-1.37,.83-2.82,.83-4.33,0-5.26-3.52-9.87-8.8-12.44-3.44-1.68-6.37-3.93-8.65-6.56,.09-.23,.15-.48,.15-.76,0-.69-.31-1.28-.74-1.54l-.32-6.64h-.36l-.32,6.64c-.43,.26-.74,.85-.74,1.54,0,.28,.06,.53,.15,.76-2.29,2.64-5.18,4.87-8.65,6.56-5.28,2.58-8.8,7.18-8.8,12.44,0,.88,.12,1.73,.3,2.57h-.76v13.06Z"/>
  <path class="cls-3" d="M99.39,108.58v3.02H60.08v-3.02h1.13c.19-9.34,7.27-16.97,16.36-18.03l1.17-3.56s.12-.07,.27-.09l.62-9.62h0c-.16-.03-.35-.07-.57-.13,0,0-.3-.08-.55-.16-.59-.2-1.17-.51-1.43-.66-2.41-1.38-4.05-3.96-4.05-6.94,0-4.07,3.04-7.43,6.97-7.94-2.26,1.08-3.82,3.39-3.82,6.06,0,3.72,3.02,6.74,6.74,6.74,2.67,0,4.97-1.56,6.06-3.82-.51,3.93-3.87,6.97-7.94,6.97-.41,0-.82-.04-1.21-.1l.62,9.6c.15,.02,.27,.09,.27,.09l1.17,3.56c9.1,1.06,16.17,8.7,16.36,18.03h1.14Z"/>
  <polygon class="cls-3" points="183.93 183.83 183.93 240.65 183.92 240.65 183.92 250.82 32.46 250.82 32.46 239.65 172.68 239.65 172.68 183.83 183.93 183.83"/>
  <path class="cls-2" d="M87.28,181c-16.68-.02-3.1-.02-3.1-.02"/>
</svg>